<svg width="148" height="459" viewBox="0 0 148 459" fill="none" xmlns="http://www.w3.org/2000/svg">
<path d="M12.3331 405.781C12.3331 393.207 19.1558 387.14 26.6818 372.651C28.6037 368.953 42.7773 330.433 42.7773 330.433H108.405C108.405 330.433 119.8 367.255 121.959 370.253C131.018 382.867 138.85 392.055 138.85 405.781C138.85 434.623 110.527 458 75.5914 458C40.6522 458 12.3331 434.62 12.3331 405.781Z" stroke="white" stroke-width="0.826433" stroke-miterlimit="10" stroke-linecap="round" stroke-linejoin="round"/>
<path d="M75.5913 331.727V369.401Z" fill="white"/>
<path d="M75.5913 331.727V369.401" stroke="white" stroke-width="0.826433" stroke-miterlimit="10" stroke-linecap="round" stroke-linejoin="round"/>
<path d="M52.7725 369.401H98.4102Z" fill="white"/>
<path d="M52.7725 369.401H98.4102" stroke="white" stroke-width="0.826433" stroke-miterlimit="10" stroke-linecap="round" stroke-linejoin="round"/>
<path d="M44.4018 295.221C44.4018 284.998 58.3568 276.709 75.5722 276.709C92.7876 276.709 106.743 284.998 106.743 295.221H44.4018Z" fill="white" stroke="white" stroke-width="0.700815" stroke-miterlimit="10" stroke-linecap="round" stroke-linejoin="round"/>
<path d="M115.625 0.546386C115.625 10.7694 91.2154 12.0004 74 12.0004C56.7846 12.0004 37 10.7696 37 0.546619L115.625 0.546386Z" fill="white" stroke="white" stroke-width="0.700815" stroke-miterlimit="10" stroke-linecap="round" stroke-linejoin="round"/>
<path d="M106.208 307.242L44.9751 318.191Z" fill="white"/>
<path d="M106.208 307.242L44.9751 318.191" stroke="white" stroke-width="0.81197" stroke-miterlimit="10" stroke-linecap="round" stroke-linejoin="round"/>
<path d="M67.1826 303.803L45.09 307.526Z" fill="white"/>
<path d="M67.1826 303.803L45.09 307.526" stroke="white" stroke-width="0.826433" stroke-miterlimit="10" stroke-linecap="round" stroke-linejoin="round"/>
<path d="M106.093 317.907L84.0002 321.63Z" fill="white"/>
<path d="M106.093 317.907L84.0002 321.63" stroke="white" stroke-width="0.826433" stroke-miterlimit="10" stroke-linecap="round" stroke-linejoin="round"/>
<path d="M75.2334 274.704V12.0002" stroke="#FFFCFC" stroke-width="0.266667"/>
</svg>
