<svg width="201" height="492" viewBox="0 0 201 492" fill="none" xmlns="http://www.w3.org/2000/svg">
<path d="M155.917 405.781C155.917 393.207 149.785 387.14 143.022 372.651C141.295 368.953 128.558 330.433 128.558 330.433H69.5813C69.5813 330.433 59.342 367.255 57.4013 370.253C49.2607 382.867 42.2227 392.055 42.2227 405.781C42.2227 434.623 67.675 458 99.0696 458C130.468 458 155.917 434.62 155.917 405.781Z" stroke="white" stroke-width="0.826433" stroke-miterlimit="10" stroke-linecap="round" stroke-linejoin="round"/>
<path d="M99.0698 331.727V369.401Z" fill="white"/>
<path d="M99.0698 331.727V369.401" stroke="white" stroke-width="0.826433" stroke-miterlimit="10" stroke-linecap="round" stroke-linejoin="round"/>
<path d="M119.576 369.401H78.5635Z" fill="white"/>
<path d="M119.576 369.401H78.5635" stroke="white" stroke-width="0.826433" stroke-miterlimit="10" stroke-linecap="round" stroke-linejoin="round"/>
<path d="M127.098 295.221C127.098 284.998 114.558 276.709 99.087 276.709C83.6164 276.709 71.0757 284.998 71.0757 295.221H127.098Z" fill="white" stroke="white" stroke-width="0.700815" stroke-miterlimit="10" stroke-linecap="round" stroke-linejoin="round"/>
<path d="M63.0938 0.546386C63.0938 10.7694 85.0294 12.0004 100.5 12.0004C115.971 12.0004 133.75 10.7696 133.75 0.546619L63.0938 0.546386Z" fill="white" stroke="white" stroke-width="0.700815" stroke-miterlimit="10" stroke-linecap="round" stroke-linejoin="round"/>
<path d="M71.5562 307.242L126.583 318.191Z" fill="white"/>
<path d="M71.5562 307.242L126.583 318.191" stroke="white" stroke-width="0.81197" stroke-miterlimit="10" stroke-linecap="round" stroke-linejoin="round"/>
<path d="M106.626 303.803L126.48 307.526Z" fill="white"/>
<path d="M106.626 303.803L126.48 307.526" stroke="white" stroke-width="0.826433" stroke-miterlimit="10" stroke-linecap="round" stroke-linejoin="round"/>
<path d="M71.6592 317.907L91.5127 321.63Z" fill="white"/>
<path d="M71.6592 317.907L91.5127 321.63" stroke="white" stroke-width="0.826433" stroke-miterlimit="10" stroke-linecap="round" stroke-linejoin="round"/>
<g filter="url(#filter0_dd_303_310)">
<ellipse cx="66.5" cy="61.0867" rx="66.5" ry="61.0867" transform="matrix(-1 0 0 1 167 335.759)" fill="#D9D9D9" fill-opacity="0.01"/>
</g>
<path d="M99.3916 274.704L99.3916 12.0002" stroke="#FFFCFC" stroke-width="0.266667"/>
<defs>
<filter id="filter0_dd_303_310" x="0.399998" y="302.159" width="200.2" height="189.373" filterUnits="userSpaceOnUse" color-interpolation-filters="sRGB">
<feFlood flood-opacity="0" result="BackgroundImageFix"/>
<feColorMatrix in="SourceAlpha" type="matrix" values="0 0 0 0 0 0 0 0 0 0 0 0 0 0 0 0 0 0 127 0" result="hardAlpha"/>
<feOffset/>
<feGaussianBlur stdDeviation="2.4"/>
<feColorMatrix type="matrix" values="0 0 0 0 1 0 0 0 0 1 0 0 0 0 1 0 0 0 1 0"/>
<feBlend mode="normal" in2="BackgroundImageFix" result="effect1_dropShadow_303_310"/>
<feColorMatrix in="SourceAlpha" type="matrix" values="0 0 0 0 0 0 0 0 0 0 0 0 0 0 0 0 0 0 127 0" result="hardAlpha"/>
<feOffset/>
<feGaussianBlur stdDeviation="16.8"/>
<feColorMatrix type="matrix" values="0 0 0 0 1 0 0 0 0 1 0 0 0 0 1 0 0 0 1 0"/>
<feBlend mode="normal" in2="effect1_dropShadow_303_310" result="effect2_dropShadow_303_310"/>
<feBlend mode="normal" in="SourceGraphic" in2="effect2_dropShadow_303_310" result="shape"/>
</filter>
</defs>
</svg>
